<mxfile host="Electron" agent="Mozilla/5.0 (Windows NT 10.0; Win64; x64) AppleWebKit/537.36 (KHTML, like Gecko) draw.io/26.2.15 Chrome/134.0.6998.205 Electron/35.2.1 Safari/537.36" version="26.2.15">
  <diagram id="C5RBs43oDa-KdzZeNtuy" name="Page-1">
    <mxGraphModel dx="910" dy="994" grid="1" gridSize="10" guides="1" tooltips="1" connect="1" arrows="1" fold="1" page="1" pageScale="1" pageWidth="827" pageHeight="1169" math="0" shadow="0">
      <root>
        <mxCell id="WIyWlLk6GJQsqaUBKTNV-0" />
        <mxCell id="WIyWlLk6GJQsqaUBKTNV-1" parent="WIyWlLk6GJQsqaUBKTNV-0" />
        <mxCell id="IFR9chnrmWuWwUz6KPNT-0" value="rㅔ" style="rounded=0;html=1;jettySize=auto;orthogonalLoop=1;fontSize=11;endArrow=block;endFill=0;endSize=8;strokeWidth=1;shadow=0;labelBackgroundColor=none;edgeStyle=orthogonalEdgeStyle;" edge="1" parent="WIyWlLk6GJQsqaUBKTNV-1" source="IFR9chnrmWuWwUz6KPNT-1" target="IFR9chnrmWuWwUz6KPNT-5">
          <mxGeometry relative="1" as="geometry" />
        </mxCell>
        <mxCell id="IFR9chnrmWuWwUz6KPNT-1" value="스킬 키 입력" style="rounded=1;whiteSpace=wrap;html=1;fontSize=12;glass=0;strokeWidth=1;shadow=0;" vertex="1" parent="WIyWlLk6GJQsqaUBKTNV-1">
          <mxGeometry x="58" y="40" width="120" height="40" as="geometry" />
        </mxCell>
        <mxCell id="IFR9chnrmWuWwUz6KPNT-2" value="No" style="edgeStyle=orthogonalEdgeStyle;rounded=0;html=1;jettySize=auto;orthogonalLoop=1;fontSize=11;endArrow=block;endFill=0;endSize=8;strokeWidth=1;shadow=0;labelBackgroundColor=none;" edge="1" parent="WIyWlLk6GJQsqaUBKTNV-1" source="IFR9chnrmWuWwUz6KPNT-5" target="IFR9chnrmWuWwUz6KPNT-6">
          <mxGeometry y="10" relative="1" as="geometry">
            <mxPoint as="offset" />
          </mxGeometry>
        </mxCell>
        <mxCell id="IFR9chnrmWuWwUz6KPNT-3" value="" style="edgeStyle=orthogonalEdgeStyle;rounded=0;orthogonalLoop=1;jettySize=auto;html=1;" edge="1" parent="WIyWlLk6GJQsqaUBKTNV-1" source="IFR9chnrmWuWwUz6KPNT-5" target="IFR9chnrmWuWwUz6KPNT-8">
          <mxGeometry relative="1" as="geometry" />
        </mxCell>
        <mxCell id="IFR9chnrmWuWwUz6KPNT-4" value="Yes" style="edgeLabel;html=1;align=center;verticalAlign=middle;resizable=0;points=[];" vertex="1" connectable="0" parent="IFR9chnrmWuWwUz6KPNT-3">
          <mxGeometry x="-0.2095" y="2" relative="1" as="geometry">
            <mxPoint x="10" as="offset" />
          </mxGeometry>
        </mxCell>
        <mxCell id="IFR9chnrmWuWwUz6KPNT-5" value="스킬 게이지&lt;div&gt;=&lt;/div&gt;&lt;div&gt;100%&lt;/div&gt;" style="rhombus;whiteSpace=wrap;html=1;shadow=0;fontFamily=Helvetica;fontSize=12;align=center;strokeWidth=1;spacing=6;spacingTop=-4;" vertex="1" parent="WIyWlLk6GJQsqaUBKTNV-1">
          <mxGeometry x="238" y="20" width="100" height="80" as="geometry" />
        </mxCell>
        <mxCell id="IFR9chnrmWuWwUz6KPNT-6" value="발동 안됨" style="rounded=1;whiteSpace=wrap;html=1;fontSize=12;glass=0;strokeWidth=1;shadow=0;" vertex="1" parent="WIyWlLk6GJQsqaUBKTNV-1">
          <mxGeometry x="414" y="40" width="120" height="40" as="geometry" />
        </mxCell>
        <mxCell id="IFR9chnrmWuWwUz6KPNT-7" value="" style="edgeStyle=orthogonalEdgeStyle;rounded=0;orthogonalLoop=1;jettySize=auto;html=1;" edge="1" parent="WIyWlLk6GJQsqaUBKTNV-1" source="IFR9chnrmWuWwUz6KPNT-8" target="IFR9chnrmWuWwUz6KPNT-11">
          <mxGeometry relative="1" as="geometry" />
        </mxCell>
        <mxCell id="IFR9chnrmWuWwUz6KPNT-8" value="캐릭터를 중심으로&amp;nbsp; 초승달 형태의 검기 발사" style="whiteSpace=wrap;html=1;shadow=0;strokeWidth=1;spacing=6;spacingTop=-4;" vertex="1" parent="WIyWlLk6GJQsqaUBKTNV-1">
          <mxGeometry x="241.5" y="140" width="93" height="60" as="geometry" />
        </mxCell>
        <mxCell id="IFR9chnrmWuWwUz6KPNT-14" value="" style="edgeStyle=orthogonalEdgeStyle;rounded=0;orthogonalLoop=1;jettySize=auto;html=1;" edge="1" parent="WIyWlLk6GJQsqaUBKTNV-1" source="IFR9chnrmWuWwUz6KPNT-11" target="IFR9chnrmWuWwUz6KPNT-13">
          <mxGeometry relative="1" as="geometry" />
        </mxCell>
        <mxCell id="IFR9chnrmWuWwUz6KPNT-11" value="검기 경로 내 오브젝트 검사" style="whiteSpace=wrap;html=1;shadow=0;strokeWidth=1;spacing=6;spacingTop=-4;" vertex="1" parent="WIyWlLk6GJQsqaUBKTNV-1">
          <mxGeometry x="238" y="230" width="100" height="60" as="geometry" />
        </mxCell>
        <mxCell id="IFR9chnrmWuWwUz6KPNT-20" value="" style="edgeStyle=orthogonalEdgeStyle;rounded=0;orthogonalLoop=1;jettySize=auto;html=1;" edge="1" parent="WIyWlLk6GJQsqaUBKTNV-1" source="IFR9chnrmWuWwUz6KPNT-13" target="IFR9chnrmWuWwUz6KPNT-19">
          <mxGeometry relative="1" as="geometry" />
        </mxCell>
        <mxCell id="IFR9chnrmWuWwUz6KPNT-21" value="No" style="edgeLabel;html=1;align=center;verticalAlign=middle;resizable=0;points=[];" vertex="1" connectable="0" parent="IFR9chnrmWuWwUz6KPNT-20">
          <mxGeometry x="0.0794" y="-1" relative="1" as="geometry">
            <mxPoint x="-11" y="-11" as="offset" />
          </mxGeometry>
        </mxCell>
        <mxCell id="IFR9chnrmWuWwUz6KPNT-23" value="" style="edgeStyle=orthogonalEdgeStyle;rounded=0;orthogonalLoop=1;jettySize=auto;html=1;" edge="1" parent="WIyWlLk6GJQsqaUBKTNV-1" source="IFR9chnrmWuWwUz6KPNT-13" target="IFR9chnrmWuWwUz6KPNT-22">
          <mxGeometry relative="1" as="geometry" />
        </mxCell>
        <mxCell id="IFR9chnrmWuWwUz6KPNT-13" value="오브젝트는&lt;div&gt;적인가?&lt;/div&gt;" style="rhombus;whiteSpace=wrap;html=1;shadow=0;strokeWidth=1;spacing=6;spacingTop=-4;" vertex="1" parent="WIyWlLk6GJQsqaUBKTNV-1">
          <mxGeometry x="248" y="320" width="80" height="80" as="geometry" />
        </mxCell>
        <mxCell id="IFR9chnrmWuWwUz6KPNT-30" value="" style="edgeStyle=orthogonalEdgeStyle;rounded=0;orthogonalLoop=1;jettySize=auto;html=1;" edge="1" parent="WIyWlLk6GJQsqaUBKTNV-1" source="IFR9chnrmWuWwUz6KPNT-19">
          <mxGeometry relative="1" as="geometry">
            <mxPoint x="290" y="520" as="targetPoint" />
            <Array as="points">
              <mxPoint x="431" y="520" />
            </Array>
          </mxGeometry>
        </mxCell>
        <mxCell id="IFR9chnrmWuWwUz6KPNT-19" value="탄막 제거" style="whiteSpace=wrap;html=1;shadow=0;strokeWidth=1;spacing=6;spacingTop=-4;" vertex="1" parent="WIyWlLk6GJQsqaUBKTNV-1">
          <mxGeometry x="400" y="330" width="62" height="60" as="geometry" />
        </mxCell>
        <mxCell id="IFR9chnrmWuWwUz6KPNT-26" value="" style="edgeStyle=orthogonalEdgeStyle;rounded=0;orthogonalLoop=1;jettySize=auto;html=1;" edge="1" parent="WIyWlLk6GJQsqaUBKTNV-1" source="IFR9chnrmWuWwUz6KPNT-22" target="IFR9chnrmWuWwUz6KPNT-25">
          <mxGeometry relative="1" as="geometry" />
        </mxCell>
        <mxCell id="IFR9chnrmWuWwUz6KPNT-22" value="적에게 데미지 적용" style="whiteSpace=wrap;html=1;shadow=0;strokeWidth=1;spacing=6;spacingTop=-4;" vertex="1" parent="WIyWlLk6GJQsqaUBKTNV-1">
          <mxGeometry x="228" y="440" width="120" height="60" as="geometry" />
        </mxCell>
        <mxCell id="IFR9chnrmWuWwUz6KPNT-24" value="Yes" style="text;html=1;align=center;verticalAlign=middle;resizable=0;points=[];autosize=1;strokeColor=none;fillColor=none;" vertex="1" parent="WIyWlLk6GJQsqaUBKTNV-1">
          <mxGeometry x="280" y="400" width="40" height="30" as="geometry" />
        </mxCell>
        <mxCell id="IFR9chnrmWuWwUz6KPNT-34" value="" style="edgeStyle=orthogonalEdgeStyle;rounded=0;orthogonalLoop=1;jettySize=auto;html=1;" edge="1" parent="WIyWlLk6GJQsqaUBKTNV-1" source="IFR9chnrmWuWwUz6KPNT-25" target="IFR9chnrmWuWwUz6KPNT-33">
          <mxGeometry relative="1" as="geometry" />
        </mxCell>
        <mxCell id="IFR9chnrmWuWwUz6KPNT-25" value="다음 오브젝트 검사" style="whiteSpace=wrap;html=1;shadow=0;strokeWidth=1;spacing=6;spacingTop=-4;" vertex="1" parent="WIyWlLk6GJQsqaUBKTNV-1">
          <mxGeometry x="228" y="540" width="120" height="60" as="geometry" />
        </mxCell>
        <mxCell id="IFR9chnrmWuWwUz6KPNT-36" value="" style="edgeStyle=orthogonalEdgeStyle;rounded=0;orthogonalLoop=1;jettySize=auto;html=1;" edge="1" parent="WIyWlLk6GJQsqaUBKTNV-1" source="IFR9chnrmWuWwUz6KPNT-33" target="IFR9chnrmWuWwUz6KPNT-35">
          <mxGeometry relative="1" as="geometry" />
        </mxCell>
        <mxCell id="IFR9chnrmWuWwUz6KPNT-33" value="검기 경로&amp;nbsp; 내 모든 오브젝트 검사 완료" style="whiteSpace=wrap;html=1;shadow=0;strokeWidth=1;spacing=6;spacingTop=-4;" vertex="1" parent="WIyWlLk6GJQsqaUBKTNV-1">
          <mxGeometry x="228" y="630" width="120" height="60" as="geometry" />
        </mxCell>
        <mxCell id="IFR9chnrmWuWwUz6KPNT-38" value="" style="edgeStyle=orthogonalEdgeStyle;rounded=0;orthogonalLoop=1;jettySize=auto;html=1;" edge="1" parent="WIyWlLk6GJQsqaUBKTNV-1" source="IFR9chnrmWuWwUz6KPNT-35" target="IFR9chnrmWuWwUz6KPNT-37">
          <mxGeometry relative="1" as="geometry" />
        </mxCell>
        <mxCell id="IFR9chnrmWuWwUz6KPNT-35" value="검기 이펙트 제거" style="whiteSpace=wrap;html=1;shadow=0;strokeWidth=1;spacing=6;spacingTop=-4;" vertex="1" parent="WIyWlLk6GJQsqaUBKTNV-1">
          <mxGeometry x="228" y="720" width="120" height="60" as="geometry" />
        </mxCell>
        <mxCell id="IFR9chnrmWuWwUz6KPNT-40" value="" style="edgeStyle=orthogonalEdgeStyle;rounded=0;orthogonalLoop=1;jettySize=auto;html=1;" edge="1" parent="WIyWlLk6GJQsqaUBKTNV-1" source="IFR9chnrmWuWwUz6KPNT-37" target="IFR9chnrmWuWwUz6KPNT-39">
          <mxGeometry relative="1" as="geometry" />
        </mxCell>
        <mxCell id="IFR9chnrmWuWwUz6KPNT-37" value="게이지 초기화" style="whiteSpace=wrap;html=1;shadow=0;strokeWidth=1;spacing=6;spacingTop=-4;" vertex="1" parent="WIyWlLk6GJQsqaUBKTNV-1">
          <mxGeometry x="228" y="810" width="120" height="60" as="geometry" />
        </mxCell>
        <mxCell id="IFR9chnrmWuWwUz6KPNT-39" value="종료" style="ellipse;whiteSpace=wrap;html=1;shadow=0;strokeWidth=1;spacing=6;spacingTop=-4;" vertex="1" parent="WIyWlLk6GJQsqaUBKTNV-1">
          <mxGeometry x="248" y="900" width="80" height="80" as="geometry" />
        </mxCell>
      </root>
    </mxGraphModel>
  </diagram>
</mxfile>
